# xmcd CD database file
#
# Track frame offsets:
#	150
#	14089
#	48409
#	65202
#	100259
#	139869
#	164004
#	199224
#	214739
#	243594
#	271569
#
# Disc length: 4349 seconds
#
# Revision: 6
# Processed by: cddbd v1.5.2PL0 Copyright (c) Steve Scherf et al.
# Submitted via: CDex 1.85
#
DISCID=aa10fb0b
DTITLE=Jimi Hendrix - Blues (Remastered)
DYEAR=1994
DGENRE=Blues
TTITLE0=Hear My Train A Comin' (Acoustic)
TTITLE1=Born Under A Bad Sign
TTITLE2=Red House
TTITLE3=Catfish Blues
TTITLE4=Voodoo Chile Blues
TTITLE5=Mannish Boy
TTITLE6=Once I Had A Woman
TTITLE7=Bleeding Heart
TTITLE8=Jam 292
TTITLE9=Electric Church Red House
TTITLE10=Hear My Train A Comin' (Electric)
EXTD=YEAR: 1994
EXTT0=
EXTT1=
EXTT2=
EXTT3=
EXTT4=
EXTT5=
EXTT6=
EXTT7=
EXTT8=
EXTT9=
EXTT10=
PLAYORDER=
